<!-- icon666.com - MILLIONS vector ICONS FREE --><svg id="Layer_1" enable-background="new 0 0 512 512" viewBox="0 0 512 512" xmlns="http://www.w3.org/2000/svg"><g><g><g><path d="m273.439 406.371c.87 12.5 2.67 25.57 5.81 38.59h-46.48c3.14-13.02 4.94-26.09 5.81-38.59l-.22-43.52c-1.78-23.78-5.59-39.84-5.59-39.84h46.48s-3.81 16.06-5.59 39.84z" fill="#ffb08d"></path><path d="m273.439 406.371c.87 12.5 2.67 25.57 5.81 38.59h-19c-3.14-13.02-4.94-26.09-5.81-38.59l.22-43.52c1.78-23.78 5.59-39.84 5.59-39.84h19s-3.81 16.06-5.59 39.84z" fill="#ff8c69"></path></g><path d="m370.469 504.501h-228.92c43.99 0-25.1-55.42 98.42-59.75h.08c5-.18 10.31-.27 15.96-.27 145.36 0 68.68 60.02 114.46 60.02z" fill="#5c5e89"></path><path d="m370.469 504.501h-32c-43.99 0 25.1-55.42-98.42-59.75 5-.18 10.31-.27 15.96-.27 145.36 0 68.68 60.02 114.46 60.02z" fill="#454068"></path><g><path d="m256.009 323.672c-4.45 0-8.78-.08-13-.25-257.17-9.87-82.92-315.918-175.79-315.918h377.58c-94.39-.001 87.16 316.168-188.79 316.168z" fill="#db5e52"></path><path d="m256.009 323.672c-4.45 0-8.78-.08-13-.25 257.17-9.87 82.92-315.918 175.79-315.918h26c-94.39-.001 87.16 316.168-188.79 316.168z" fill="#c43d4e"></path></g><path d="m283.959 384.521c0 15.44-12.51 27.96-27.95 27.96-3.91 0-7.63-.8-11-2.25-9.97-4.27-16.95-14.18-16.95-25.71s6.98-21.43 16.95-25.7c3.37-1.45 7.09-2.25 11-2.25 15.44.001 27.95 12.511 27.95 27.95z" fill="#ff8c69"></path><path d="m283.959 384.521c0 15.44-12.51 27.96-27.95 27.96-3.91 0-7.63-.8-11-2.25 9.97-4.27 16.95-14.18 16.95-25.71s-6.98-21.43-16.95-25.7c3.37-1.45 7.09-2.25 11-2.25 15.44.001 27.95 12.511 27.95 27.95z" fill="#db5e52"></path><path d="m293.1 158.298c11.176-9.366 17.161-22.547 17.161-38.376 0-26.742-17.58-47.869-43.745-52.57-27.927-5.02-54.167 9.627-63.816 35.613-2.884 7.766 1.074 16.399 8.84 19.283 7.762 2.884 16.399-1.074 19.283-8.84 5.259-14.162 19.434-18.495 30.388-16.529 5.728 1.029 19.051 5.335 19.051 23.043 0 9.472-4.085 15.477-13.246 19.474-8.629 3.764-17.91 3.902-17.928 3.903h-.024c-8.273.013-15.013 6.724-15.013 15 0 8.281 6.673 14.994 14.952 15h.017c.28.004 9.458.178 17.997 3.903 9.161 3.996 13.246 10.002 13.246 19.474 0 17.707-13.322 22.013-19.051 23.042-10.954 1.969-25.128-2.367-30.388-16.529-2.884-7.767-11.519-11.724-19.284-8.839-7.766 2.884-11.724 11.518-8.839 19.284 8.383 22.575 29.289 36.591 52.942 36.59 3.573 0 7.21-.32 10.874-.978 26.165-4.702 43.745-25.828 43.745-52.57-.001-15.83-5.986-29.011-17.162-38.378z" fill="#ffb08d"></path></g><g><path d="m478.737 46.535c-17.867-10.928-40.234-12.459-55.66-3.812-.137.077-.273.154-.408.232 1.154-10.104 3.55-18.063 7.94-22.742 3.337-3.557 7.846-5.213 14.188-5.213 4.143 0 7.5-3.358 7.5-7.5s-3.357-7.5-7.5-7.5h-93.005c-4.143 0-7.5 3.358-7.5 7.5s3.357 7.5 7.5 7.5h63.973c-11.668 18.316-9.613 50.534-7.074 90.366 3.649 57.234 8.19 128.464-31.7 170.979-25.143 26.798-64.717 39.825-120.982 39.825-56.264 0-95.838-13.027-120.982-39.825-39.889-42.514-35.348-113.744-31.699-170.978 2.539-39.833 4.594-72.051-7.074-90.367h221.233c4.143 0 7.5-3.358 7.5-7.5s-3.357-7.5-7.5-7.5h-250.264c-4.142 0-7.5 3.358-7.5 7.5s3.358 7.5 7.5 7.5c6.343 0 10.852 1.657 14.188 5.213 4.392 4.681 6.788 12.645 7.942 22.755-.142-.082-.285-.164-.429-.245-15.428-8.648-37.795-7.116-55.659 3.812-13.098 8.011-34.823 27.911-33.177 71.185.85 22.357 10.009 40.538 28 55.581 1.404 1.173 3.11 1.746 4.807 1.746 2.145 0 4.274-.915 5.758-2.689 2.657-3.178 2.235-7.908-.943-10.565-14.954-12.503-21.934-26.271-22.633-44.643-1.355-35.634 15.716-51.521 26.013-57.818 13.173-8.058 29.824-9.507 40.498-3.524 5.538 3.105 8.418 7.654 8.569 13.527-.262 10.983-1.023 22.92-1.798 35.078-1.798 28.207-3.803 59.649-.846 89.963-6.888-5.337-14.777-9.969-22.559-14.538l-1.675-.983c-3.569-2.098-8.166-.906-10.266 2.665-2.099 3.571-.906 8.167 2.665 10.266l1.682.988c17.944 10.535 33.441 19.633 35.848 34.87 3.018 19.101-14.463 25.212-16.424 25.833-3.964 1.202-6.204 5.389-5.002 9.353.982 3.239 3.957 5.327 7.175 5.327.721 0 1.453-.104 2.178-.324 6.08-1.843 14.803-6.645 20.771-14.88 5.478 12.204 12.709 23.561 22.184 33.659 23.342 24.878 57.022 39.148 102.447 43.288 1.128 5.905 2.902 16.515 4.059 29.93-6.208 6.389-10.037 15.104-10.037 24.696 0 9.707 3.921 18.515 10.261 24.924-.833 9.914-2.225 19.465-4.15 28.502-26.816 1.951-45.764 6.86-57.531 14.853-15.29 10.387-16.418 24.236-17.165 33.4-.292 3.583-.594 7.289-1.669 8.765-.941 1.292-4.13 2.034-8.75 2.034-4.142 0-7.5 3.358-7.5 7.5s3.358 7.5 7.5 7.5h57.253c4.142 0 7.5-3.358 7.5-7.5s-3.358-7.5-7.5-7.5h-33.286c.891-3.289 1.165-6.658 1.403-9.581.693-8.509 1.291-15.857 10.643-22.21 12.923-8.779 39.315-13.23 78.441-13.23s65.518 4.451 78.442 13.23c9.351 6.353 9.95 13.702 10.643 22.21.238 2.923.513 6.292 1.403 9.581h-113.931c-4.142 0-7.5 3.358-7.5 7.5s3.358 7.5 7.5 7.5h137.899c4.142 0 7.5-3.358 7.5-7.5s-3.357-7.5-7.5-7.5c-4.62 0-7.81-.741-8.751-2.034-1.074-1.477-1.376-5.182-1.668-8.765-.747-9.164-1.876-23.013-17.166-33.4-11.766-7.993-30.714-12.902-57.53-14.853-1.926-9.039-3.317-18.59-4.151-28.502 6.34-6.409 10.261-15.217 10.261-24.924 0-9.592-3.828-18.306-10.037-24.696 1.158-13.415 2.931-24.025 4.059-29.93 45.425-4.14 79.105-18.41 102.447-43.288 9.47-10.093 16.7-21.444 22.176-33.642 5.968 8.225 14.683 13.022 20.759 14.864.724.219 1.454.324 2.173.324 3.197 0 6.148-2.072 7.145-5.29 1.221-3.939-.992-8.132-4.924-9.376-2.003-.634-19.484-6.745-16.466-25.846 2.407-15.237 17.905-24.336 35.85-34.871 24.797-14.558 55.657-32.675 57.268-75.051 1.648-43.278-20.076-63.178-33.173-71.189zm-222.727 284.634c4.786 0 9.464-.091 14.033-.273-.882 5.026-1.928 11.833-2.818 19.988-3.526-1.179-7.298-1.819-11.216-1.819s-7.689.64-11.216 1.819c-.889-8.155-1.935-14.962-2.817-19.988 4.571.182 9.248.273 14.034.273zm0 105.81c-4.806 0-9.429.065-13.875.197 1.191-6.129 2.156-12.455 2.89-18.939 3.46 1.13 7.152 1.742 10.985 1.742s7.525-.612 10.986-1.742c.734 6.483 1.699 12.809 2.89 18.939-4.446-.132-9.07-.197-13.876-.197zm0-32c-11.276 0-20.451-9.177-20.451-20.457s9.174-20.457 20.451-20.457c11.276 0 20.451 9.177 20.451 20.457s-9.175 20.457-20.451 20.457zm240.913-287.829c-1.3 34.169-25.994 48.666-49.875 62.686-7.775 4.565-15.656 9.192-22.54 14.523 2.954-30.308.95-61.744-.848-89.946-.783-12.288-1.552-24.35-1.806-35.429.255-5.703 3.131-10.133 8.557-13.175 10.671-5.982 27.325-4.534 40.498 3.524 10.298 6.296 27.369 22.183 26.014 57.817z"></path><circle cx="375.387" cy="227.779" r="7.5"></circle><circle cx="355.257" cy="259.999" r="7.5"></circle><circle cx="323.347" cy="280.609" r="7.5"></circle><circle cx="136.489" cy="227.779" r="7.5"></circle><circle cx="380.747" cy="78.519" r="7.5"></circle><circle cx="377.747" cy="44.059" r="7.5"></circle><circle cx="340.748" cy="42.059" r="7.5"></circle><circle cx="131.749" cy="78.519" r="7.5"></circle><circle cx="134.749" cy="44.059" r="7.5"></circle><circle cx="171.749" cy="42.059" r="7.5"></circle><circle cx="156.619" cy="259.999" r="7.5"></circle><circle cx="188.529" cy="280.609" r="7.5"></circle><g><path d="m255.632 257.722c4.046 0 8.151-.369 12.2-1.096 29.858-5.365 49.919-29.458 49.919-59.952 0-15.013-4.78-28.125-13.91-38.376 9.13-10.252 13.91-23.364 13.91-38.376 0-4.142-3.357-7.5-7.5-7.5s-7.5 3.358-7.5 7.5c0 13.599-4.871 24.577-14.479 32.628-1.7 1.425-2.683 3.529-2.683 5.748s.982 4.323 2.683 5.748c9.607 8.052 14.479 19.03 14.479 32.628 0 22.99-15.099 41.15-37.571 45.188-3.176.571-6.389.86-9.548.86-20.738 0-38.76-12.443-45.911-31.701-1.44-3.877.543-8.202 4.421-9.643 1.874-.697 3.912-.623 5.734.213 1.821.835 3.208 2.329 3.905 4.208 6.762 18.205 24.824 23.803 38.745 21.3 5.918-1.063 25.225-6.399 25.225-30.424 0-12.521-5.806-21.139-17.747-26.348-9.752-4.253-19.779-4.512-20.891-4.527-.033 0-.083-.001-.116-.001-4.111-.003-7.457-3.367-7.457-7.5 0-4.129 3.376-7.493 7.537-7.5.044 0 .09 0 .133-.001 1.111-.02 11.13-.312 20.794-4.527 11.941-5.209 17.747-13.828 17.747-26.348 0-24.024-19.307-29.361-25.227-30.425-13.919-2.498-31.983 3.103-38.743 21.301-.697 1.877-2.084 3.372-3.906 4.207-1.82.835-3.858.911-5.734.213-3.877-1.44-5.859-5.765-4.42-9.642 8.363-22.524 31.164-35.206 55.459-30.842 12.248 2.2 22.688 8.681 29.396 18.248 2.378 3.391 7.056 4.212 10.446 1.834 3.392-2.378 4.213-7.055 1.835-10.447-8.996-12.83-22.856-21.495-39.024-24.399-31.56-5.668-61.238 10.935-72.175 40.384-4.318 11.63 1.63 24.606 13.26 28.925 5.63 2.092 11.743 1.866 17.208-.639 5.464-2.504 9.625-6.987 11.718-12.62 3.758-10.122 14.06-13.191 22.03-11.759 8.544 1.536 12.877 6.805 12.877 15.661 0 6.486-2.288 9.783-8.744 12.599-7.073 3.085-14.983 3.277-14.966 3.277-12.407.02-22.501 10.113-22.501 22.5 0 12.368 10.022 22.443 22.381 22.5.525.014 8.198.273 15.085 3.277 6.457 2.816 8.745 6.113 8.745 12.599 0 8.856-4.332 14.125-12.878 15.661-7.97 1.437-18.27-1.634-22.029-11.758-2.093-5.634-6.254-10.117-11.718-12.621-5.462-2.504-11.573-2.73-17.208-.638-11.63 4.319-17.578 17.294-13.26 28.925 9.359 25.197 32.9 41.479 59.974 41.478z"></path></g></g></g></svg>