<!-- icon666.com - MILLIONS vector ICONS FREE --><svg id="Capa_1" enable-background="new 0 0 512.001 512.001" viewBox="0 0 512.001 512.001" xmlns="http://www.w3.org/2000/svg"><g><g><path d="m504.501 421.187h-114.459v-14.943c0-14.994 12.151-27.145 27.145-27.145l-37.439-37.439-.386-29.521-.152-11.146 40.667.528 59.843 59.844c15.868 15.866 24.781 37.387 24.781 59.822z" fill="#a8d3d8"></path><path d="m455.824 409.789v11.398h-65.782v-14.943c0-14.994 12.151-27.145 27.145-27.145l-37.439-37.439-.386-29.521 61.479 61.479c9.594 9.593 14.983 22.604 14.983 36.171z" fill="#8ebac5"></path><path d="m207.02 265.188-66.026 49.093-10.07 7.492-63.041-50.2-60.382-97.993 28.079-26.769 58.737-55.996z" fill="#ffeee6"></path><path d="m140.994 314.281-10.07 7.492-63.041-50.2-60.382-97.993 28.079-26.769z" fill="#ffdfcf"></path><path d="m174.65 235.999-58.293-57.222c-6.841-6.715-8.048-17.301-2.895-25.384 6.974-10.939 22.282-12.613 31.455-3.438l33.001 33.007 11.082 39.615z" fill="#d9e7ec"></path><path d="m380.002 196.35-69.213 93.11-58.676 58.676-105.251 25.46-56.463 13.664-47.225-94.684c-7.786-15.603 10.547-31.196 24.709-21.004 9.096 6.548 19.379 10.618 29.957 12.222 3.431.518 6.903.782 10.365.782 14.425 0 28.841-4.517 41.022-13.522l.7-.518c17.613-13.014 27.998-33.602 27.998-55.499v-32.077l116.926-27.815c17.369-4.132 35.642-2 51.6 6l28.587 14.334c7.776 3.908 10.152 13.887 4.964 20.871z" fill="#9be69d"></path><path d="m146.862 373.597-56.463 13.664-47.225-94.684c-7.786-15.603 10.547-31.196 24.709-21.004 9.096 6.548 19.379 10.618 29.957 12.222z" fill="#6fd7a3"></path><path d="m300.202 379.997c-11.379-11.379-11.379-29.827 0-41.206l116.813-116.813c11.379-11.379 29.827-11.379 41.206 0 11.379 11.379 11.379 29.827 0 41.206l-116.813 116.813c-11.379 11.379-29.827 11.379-41.206 0z" fill="#7a8c98"></path><path d="m376.055 345.35-34.647 34.647c-11.38 11.37-29.825 11.37-41.205 0-11.38-11.38-11.38-29.835 0-41.215l34.576-34.576c-11.309 11.38-11.289 29.785.061 41.144 11.379 11.38 29.835 11.38 41.215 0z" fill="#596c76"></path><path d="m402.62 236.368-92.166 92.176c-6.791 6.781-14.669 12.365-23.328 16.506l-96.196 46.058c-.01.01-.03.01-.041.02l-54.707 26.191c-10.791 5.157-23.724 1.736-30.546-8.091l-15.238-21.968 50.677-24.262 118.986-56.97c8.659-4.142 16.537-9.725 23.328-16.506l94.704-94.714c6.182-6.172 16.435-5.248 21.41 1.929l5.908 8.517c6.721 9.684 5.543 22.779-2.791 31.114z" fill="#e8edf2"></path><path d="m190.889 391.128-54.707 26.191c-10.791 5.157-23.724 1.736-30.546-8.091l-15.238-21.968 50.677-24.262 7.959 14.578c8.142 14.923 26.526 20.861 41.855 13.552z" fill="#d9e7ec"></path><path d="m224.956 238.283c-7.532 0-14.183-5.436-15.469-13.111l-9.459-56.459c-1.433-8.554 4.339-16.649 12.893-18.083 8.556-1.431 16.65 4.339 18.083 12.893l5.164 30.825 4.295 25.635c1.433 8.554-4.339 16.649-12.893 18.083-.878.146-1.752.217-2.614.217z" fill="#e8edf2"></path><path d="m227.571 238.061c-.883.152-1.756.223-2.619.223-7.532 0-14.182-5.441-15.471-13.116l-4.294-25.633c1.289 7.675 7.938 13.106 15.471 13.106.863 0 1.736-.071 2.609-.213 8.558-1.431 14.334-9.532 12.903-18.08l4.294 25.633c1.43 8.548-4.346 16.649-12.893 18.08z" fill="#d9e7ec"></path><path d="m280.14 217.519c-7.532 0-14.183-5.436-15.469-13.111l-9.459-56.459c-1.433-8.554 4.339-16.649 12.893-18.083 8.556-1.431 16.65 4.339 18.083 12.893l9.459 56.459c1.433 8.554-4.339 16.649-12.893 18.083-.879.147-1.752.218-2.614.218z" fill="#e8edf2"></path><path d="m282.754 217.298c-.883.152-1.756.223-2.619.223-7.532 0-14.182-5.441-15.471-13.116l-4.294-25.633c1.289 7.675 7.938 13.106 15.471 13.106.863 0 1.736-.071 2.609-.213 8.558-1.431 14.334-9.532 12.903-18.08l4.294 25.633c1.431 8.547-4.345 16.648-12.893 18.08z" fill="#d9e7ec"></path></g><path d="m485.025 356.061-54.537-54.537 33.032-33.036c6.926-6.914 10.741-16.115 10.741-25.908 0-9.781-3.813-18.98-10.736-25.903-12.758-12.759-32.656-14.111-46.942-4.083-.854-4.068-2.514-8.022-5.008-11.618l-5.909-8.518c-3.639-5.249-9.376-8.587-15.741-9.159-.061-.005-.122-.006-.183-.011-1.375-6.123-5.396-11.536-11.341-14.513l-28.584-14.333c-17.041-8.553-36.589-10.976-55.223-6.907l-1.008-6.015c-2.113-12.616-14.1-21.161-26.719-19.051-12.618 2.114-21.165 14.1-19.051 26.719l1.52 9.074-11.207 2.665c-2.716-11.864-14.285-19.728-26.446-17.694-12.618 2.114-21.164 14.1-19.051 26.719l.291 1.735-12.665 3.009-30.037-30.043c-4.722-4.723-10.859-7.521-17.372-8.045l-32.232-49.863c-2.249-3.479-6.892-4.476-10.37-2.228-3.479 2.249-4.476 6.892-2.228 10.37l29.131 45.066c-4.017 2.212-7.466 5.416-10.012 9.409-7.015 11.004-5.348 25.626 3.966 34.768l54.829 53.821c-4.198 10.434-11.194 19.697-20.41 26.531l-.666.478c-.029.021-.059.042-.088.064-2.473 1.831-5.1 3.486-7.808 4.92-3.661 1.939-5.056 6.478-3.118 10.138 1.346 2.542 3.945 3.991 6.634 3.991 1.184 0 2.385-.281 3.504-.874 3.353-1.776 6.605-3.824 9.667-6.086l.667-.479c.029-.021.059-.042.087-.064 19.417-14.372 31.008-37.373 31.008-61.528v-26.153l9.994-2.375 6.684 39.897c1.881 11.225 11.498 19.372 22.866 19.372 1.282 0 2.578-.108 3.854-.321 12.618-2.115 21.164-14.101 19.05-26.719l-7.204-42.999 11.163-2.654 5.455 32.558c1.881 11.225 11.498 19.372 22.866 19.372 1.282 0 2.578-.108 3.854-.321 12.618-2.115 21.164-14.101 19.05-26.719l-5.971-35.639c15.496-3.562 31.818-1.618 46.017 5.51l28.59 14.335c2.268 1.136 3.358 3.211 3.536 5.246-.848.629-1.659 1.318-2.418 2.076l-12.52 12.52c-2.929 2.929-2.929 7.678 0 10.606 2.929 2.929 7.678 2.929 10.606 0l12.52-12.52c1.87-1.869 4.047-1.976 5.178-1.875 1.13.102 3.251.596 4.756 2.767l5.91 8.519c4.653 6.708 3.842 15.766-1.926 21.538 0 0-105.531 103.443-113.43 107.223l-150.952 72.261c-7.507 3.597-16.396 1.243-21.138-5.602l-10.218-14.724 161.711-77.424c9.439-4.512 17.985-10.559 25.399-17.973l57.77-57.77c2.929-2.929 2.929-7.678 0-10.606-2.929-2.929-7.678-2.929-10.606 0l-57.77 57.77c-6.208 6.208-13.361 11.27-21.266 15.048l-76.954 36.844c-20.754-22.942-48.333-33.741-80.123-31.278-16.312 1.264-29.941 5.72-37.704 8.798l-12.163-24.38c-2.373-4.771-.374-8.886 2.289-11.147 2.65-2.25 7.018-3.551 11.325-.445 12.704 9.143 27.692 14.126 43.345 14.411 4.114.075 7.56-3.22 7.635-7.362.076-4.142-3.22-7.56-7.362-7.635-12.103-.221-23.707-3.943-33.658-10.761l-59.563-96.663c-2.174-3.526-6.793-4.624-10.32-2.451-3.526 2.173-4.624 6.793-2.451 10.32l51.71 83.918c-3.699.848-7.253 2.587-10.369 5.233-8.649 7.343-11.064 19.103-6.006 29.271l47.24 94.67c.008.016.353.644.549.927l15.237 21.956c6.143 8.867 15.971 13.746 26.117 13.745 4.65 0 9.368-1.025 13.826-3.162l145.062-69.441c-.202 1.567-.315 3.155-.315 4.762 0 9.787 3.812 18.988 10.732 25.908 7.192 7.192 16.54 10.804 25.899 10.803 9.001 0 18.014-3.342 25.123-10.052 3.012-2.843 3.149-7.59.306-10.603-2.843-3.011-7.589-3.148-10.603-.306-8.558 8.08-21.788 7.881-30.118-.449-4.087-4.087-6.338-9.521-6.338-15.302s2.251-11.214 6.338-15.302l116.81-116.81c8.438-8.436 22.167-8.437 30.604 0 4.09 4.09 6.343 9.523 6.343 15.297 0 5.781-2.251 11.212-6.343 15.297l-92.91 92.92c-2.929 2.929-2.928 7.678 0 10.607 2.93 2.929 7.678 2.928 10.607 0l9.135-9.136 22.648 22.648c-11.726 5.559-19.856 17.512-19.856 31.328v14.943c0 4.142 3.358 7.5 7.5 7.5s7.5-3.358 7.5-7.5v-14.943c0-10.833 8.813-19.646 19.646-19.646 3.034 0 5.768-1.827 6.929-4.63s.519-6.028-1.626-8.173l-32.135-32.135 29.526-29.529 54.537 54.536c14.562 14.562 22.583 33.924 22.583 54.519 0 4.142 3.358 7.5 7.5 7.5s7.5-3.358 7.5-7.5c-.003-24.6-9.583-47.729-26.979-65.125zm-363.414-182.637c-4.286-4.207-5.054-10.936-1.825-16 2.095-3.287 5.519-5.415 9.394-5.838 3.875-.426 7.677.914 10.433 3.67l30.799 30.805v28.979c0 2.005-.123 3.996-.319 5.974zm104.721 57.243c-.458.076-.921.115-1.376.115-4.012 0-7.407-2.881-8.072-6.851l-9.459-56.459c-.747-4.461 2.274-8.699 6.733-9.446.457-.077.911-.113 1.359-.113 3.935 0 7.419 2.844 8.09 6.848l9.459 56.458c.747 4.463-2.274 8.701-6.734 9.448zm55.184-20.763c-.458.076-.921.115-1.376.115-4.012 0-7.407-2.881-8.072-6.851l-9.459-56.459c-.747-4.461 2.274-8.699 6.734-9.446.457-.077.911-.114 1.359-.114 3.934 0 7.419 2.845 8.089 6.849l9.459 56.459c.747 4.461-2.274 8.699-6.734 9.447zm-187.699 167.406-25.044-50.189c7.013-2.675 18.825-6.367 32.617-7.37 25.561-1.86 47.134 5.934 64.266 23.163z"></path></g></svg>