<!-- icon666.com - MILLIONS vector ICONS FREE --><svg id="Layer_1" enable-background="new 0 0 512 512" viewBox="0 0 512 512" xmlns="http://www.w3.org/2000/svg"><g><g><g><path d="m273.442 406.368c.87 12.5 2.67 25.57 5.81 38.59h-46.48c3.14-13.02 4.94-26.09 5.81-38.59l-.22-43.52c-1.78-23.78-5.59-39.84-5.59-39.84h46.48s-3.81 16.06-5.59 39.84z" fill="#ffe0a9"></path><path d="m273.442 406.368c.87 12.5 2.67 25.57 5.81 38.59h-19c-3.14-13.02-4.94-26.09-5.81-38.59l.22-43.52c1.78-23.78 5.59-39.84 5.59-39.84h19s-3.81 16.06-5.59 39.84z" fill="#ffcb78"></path></g><path d="m370.471 504.498h-228.92c43.99 0-25.1-55.42 98.42-59.75h.08c5-.18 10.31-.27 15.96-.27 145.361 0 68.68 60.02 114.46 60.02z" fill="#5c5e89"></path><path d="m370.471 504.498h-32c-43.99 0 25.1-55.42-98.42-59.75 5-.18 10.31-.27 15.96-.27 145.361 0 68.68 60.02 114.46 60.02z" fill="#454068"></path><g><path d="m256.012 323.668c-4.45 0-8.78-.08-13-.25-257.17-9.87-82.92-315.919-175.79-315.919h377.58c-94.391 0 87.159 316.169-188.79 316.169z" fill="#ffa757"></path><path d="m256.012 323.668c-4.45 0-8.78-.08-13-.25 257.17-9.87 82.92-315.919 175.79-315.919h26c-94.391 0 87.159 316.169-188.79 316.169z" fill="#ff895a"></path></g><path d="m300.22 216.072c-.598-.081-11.387-1.522-25.842-2.247 2.69-66.098-.704-128.368-.742-129.038-.372-6.667-5.088-12.288-11.579-13.801s-13.199 1.448-16.468 7.266c-14.381 25.594-36.956 35.581-37.558 35.842-7.616 3.172-11.251 11.917-8.122 19.574 3.14 7.682 11.902 11.359 19.565 8.213.787-.323 12.244-5.135 25.565-16.5.514 23.682.687 55.608-.683 88.375-15.161.698-26.639 2.232-27.257 2.315-8.208 1.111-13.96 8.677-12.855 16.901 1.105 8.225 8.653 13.989 16.865 12.89.177-.024 17.931-2.382 37.5-2.387h.064.066c19.557.006 37.294 2.363 37.465 2.386.682.092 1.357.137 2.027.137 7.392 0 13.829-5.477 14.846-13.02 1.109-8.225-4.647-15.795-12.857-16.906z" fill="#ffe0a9"></path><path d="m283.962 384.518c0 15.44-12.51 27.96-27.95 27.96-3.91 0-7.63-.8-11-2.25-9.97-4.27-16.95-14.18-16.95-25.71s6.98-21.43 16.95-25.7c3.37-1.45 7.09-2.25 11-2.25 15.44 0 27.95 12.51 27.95 27.95z" fill="#ffcb78"></path><path d="m283.962 384.518c0 15.44-12.51 27.96-27.95 27.96-3.91 0-7.63-.8-11-2.25 9.97-4.27 16.95-14.18 16.95-25.71s-6.98-21.43-16.95-25.7c3.37-1.45 7.09-2.25 11-2.25 15.44 0 27.95 12.51 27.95 27.95z" fill="#ffa757"></path></g><g><path d="m216.111 208.64c-12.285 1.664-20.933 13.028-19.279 25.333 1.653 12.301 12.997 20.974 25.293 19.324.173-.023 17.547-2.316 36.439-2.32h.183c18.989.006 36.283 2.295 36.459 2.319 1.004.135 2.022.204 3.028.204 11.199-.001 20.776-8.392 22.275-19.519 1.658-12.309-6.991-23.677-19.287-25.342-.972-.131-8.427-1.11-19.068-1.858.234-6.845.416-13.888.543-21.022.073-4.142-3.225-7.558-7.366-7.632-4.1-.049-7.558 3.224-7.632 7.366-.17 9.602-.441 19.032-.808 28.028-.167 4.111 3.01 7.589 7.118 7.795 14.099.707 24.765 2.128 25.206 2.188 4.1.555 6.983 4.356 6.429 8.474-.501 3.718-3.688 6.522-7.411 6.522-.337 0-.683-.023-1.008-.067-.178-.024-18.418-2.449-38.475-2.456h-.057c-.027 0-.057 0-.075 0-20.111.004-38.313 2.43-38.486 2.453-4.106.551-7.882-2.348-8.434-6.456-.553-4.116 2.33-7.916 6.418-8.469.477-.064 11.841-1.576 26.597-2.256 3.883-.179 6.986-3.295 7.148-7.179 1.423-34.028 1.16-67.1.688-88.852-.062-2.896-1.788-5.497-4.431-6.682-2.644-1.184-5.733-.741-7.935 1.139-12.501 10.667-23.097 15.085-23.54 15.267-1.846.759-3.878.751-5.719-.021-1.851-.775-3.29-2.228-4.051-4.091-1.564-3.827.258-8.229 4.061-9.814.034-.014.067-.028.101-.043 1.035-.449 25.524-11.316 41.104-39.049 1.623-2.891 5.008-4.385 8.223-3.635 3.226.751 5.606 3.595 5.792 6.911.016.292 1.619 29.698 1.757 69.278.015 4.133 3.369 7.474 7.499 7.474h.027c4.142-.015 7.488-3.384 7.474-7.526-.14-39.963-1.764-69.757-1.78-70.057-.554-9.927-7.693-18.434-17.363-20.688-9.671-2.255-19.835 2.226-24.705 10.897-12.863 22.896-33.178 32.266-33.975 32.625-11.332 4.771-16.76 17.897-12.099 29.301 2.278 5.577 6.59 9.928 12.141 12.253 5.542 2.321 11.655 2.342 17.213.06.932-.383 7.083-2.997 15.461-8.573.232 18.669.196 42.115-.666 66.403-11.641.759-19.959 1.85-21.027 1.993z"></path><path d="m478.737 46.535c-17.867-10.928-40.234-12.459-55.66-3.812-.137.077-.273.154-.408.232 1.154-10.104 3.55-18.063 7.94-22.742 3.337-3.557 7.846-5.213 14.188-5.213 4.143 0 7.5-3.358 7.5-7.5s-3.357-7.5-7.5-7.5h-93.005c-4.143 0-7.5 3.358-7.5 7.5s3.357 7.5 7.5 7.5h63.973c-11.668 18.316-9.613 50.534-7.074 90.366 3.649 57.234 8.19 128.464-31.7 170.979-25.143 26.798-64.717 39.825-120.982 39.825-56.264 0-95.838-13.027-120.982-39.825-39.889-42.514-35.348-113.744-31.699-170.978 2.539-39.833 4.594-72.051-7.074-90.367h221.233c4.143 0 7.5-3.358 7.5-7.5s-3.357-7.5-7.5-7.5h-250.264c-4.142 0-7.5 3.358-7.5 7.5s3.358 7.5 7.5 7.5c6.343 0 10.852 1.657 14.188 5.213 4.392 4.681 6.788 12.645 7.942 22.755-.142-.082-.285-.164-.429-.245-15.428-8.648-37.795-7.116-55.659 3.812-13.098 8.011-34.823 27.911-33.177 71.185.85 22.357 10.009 40.538 28 55.581 1.404 1.173 3.11 1.746 4.807 1.746 2.144 0 4.274-.915 5.758-2.689 2.657-3.178 2.235-7.908-.943-10.565-14.954-12.503-21.934-26.271-22.633-44.643-1.355-35.634 15.716-51.521 26.013-57.818 13.173-8.058 29.824-9.507 40.498-3.524 5.538 3.105 8.419 7.654 8.569 13.527-.263 10.983-1.023 22.92-1.799 35.078-1.798 28.207-3.803 59.649-.846 89.963-6.888-5.337-14.777-9.969-22.559-14.538l-1.675-.983c-3.569-2.098-8.166-.906-10.266 2.665s-.906 8.167 2.665 10.266l1.682.988c17.944 10.535 33.441 19.633 35.848 34.87 3.018 19.101-14.463 25.212-16.424 25.833-3.964 1.202-6.204 5.389-5.002 9.353.982 3.239 3.957 5.327 7.175 5.327.721 0 1.453-.104 2.178-.324 6.08-1.843 14.803-6.645 20.771-14.88 5.478 12.204 12.709 23.561 22.184 33.659 23.342 24.878 57.022 39.148 102.447 43.288 1.128 5.905 2.902 16.515 4.059 29.93-6.208 6.389-10.037 15.104-10.037 24.696 0 9.707 3.921 18.515 10.261 24.924-.833 9.914-2.225 19.465-4.15 28.502-26.816 1.951-45.764 6.86-57.531 14.853-15.29 10.387-16.418 24.236-17.165 33.4-.292 3.583-.594 7.289-1.669 8.765-.941 1.292-4.13 2.034-8.75 2.034-4.142 0-7.5 3.358-7.5 7.5s3.358 7.5 7.5 7.5h57.253c4.142 0 7.5-3.358 7.5-7.5s-3.358-7.5-7.5-7.5h-33.286c.891-3.289 1.165-6.658 1.403-9.581.693-8.509 1.291-15.857 10.643-22.21 12.923-8.779 39.315-13.23 78.441-13.23 39.127 0 65.518 4.451 78.442 13.23 9.351 6.353 9.95 13.702 10.643 22.21.238 2.923.513 6.292 1.403 9.581h-113.93c-4.142 0-7.5 3.358-7.5 7.5s3.358 7.5 7.5 7.5h137.899c4.142 0 7.5-3.358 7.5-7.5s-3.357-7.5-7.5-7.5c-4.62 0-7.81-.741-8.751-2.034-1.074-1.477-1.376-5.182-1.668-8.765-.747-9.164-1.876-23.013-17.166-33.4-11.766-7.993-30.714-12.902-57.53-14.853-1.926-9.039-3.317-18.59-4.151-28.502 6.34-6.409 10.261-15.217 10.261-24.924 0-9.592-3.828-18.306-10.037-24.696 1.158-13.415 2.931-24.025 4.059-29.93 45.425-4.14 79.105-18.41 102.446-43.288 9.47-10.093 16.7-21.444 22.176-33.642 5.968 8.225 14.683 13.022 20.759 14.864.724.219 1.454.324 2.173.324 3.197 0 6.148-2.072 7.145-5.29 1.221-3.939-.992-8.132-4.924-9.376-2.003-.634-19.484-6.745-16.466-25.846 2.407-15.237 17.905-24.336 35.85-34.871 24.797-14.558 55.657-32.675 57.268-75.051 1.649-43.278-20.075-63.178-33.172-71.189zm-222.727 284.634c4.786 0 9.464-.091 14.034-.273-.882 5.026-1.928 11.833-2.818 19.988-3.526-1.179-7.298-1.819-11.216-1.819s-7.689.64-11.216 1.819c-.889-8.155-1.935-14.962-2.817-19.988 4.57.182 9.247.273 14.033.273zm0 105.81c-4.806 0-9.429.065-13.875.197 1.191-6.129 2.156-12.455 2.89-18.939 3.46 1.13 7.152 1.742 10.985 1.742s7.525-.612 10.986-1.742c.734 6.483 1.699 12.809 2.89 18.939-4.446-.132-9.07-.197-13.876-.197zm0-32c-11.276 0-20.451-9.177-20.451-20.457s9.174-20.457 20.451-20.457c11.276 0 20.451 9.177 20.451 20.457s-9.175 20.457-20.451 20.457zm240.913-287.829c-1.3 34.169-25.994 48.666-49.875 62.686-7.775 4.565-15.656 9.192-22.54 14.523 2.954-30.308.95-61.744-.848-89.946-.783-12.288-1.552-24.35-1.806-35.429.255-5.703 3.131-10.133 8.557-13.175 10.671-5.982 27.325-4.534 40.498 3.524 10.298 6.296 27.369 22.183 26.014 57.817z"></path><circle cx="375.387" cy="227.779" r="7.5"></circle><circle cx="355.257" cy="259.999" r="7.5"></circle><circle cx="323.347" cy="280.609" r="7.5"></circle><circle cx="136.489" cy="227.779" r="7.5"></circle><circle cx="380.747" cy="78.519" r="7.5"></circle><circle cx="377.747" cy="44.059" r="7.5"></circle><circle cx="340.748" cy="42.059" r="7.5"></circle><circle cx="131.749" cy="78.519" r="7.5"></circle><circle cx="134.749" cy="44.059" r="7.5"></circle><circle cx="171.749" cy="42.059" r="7.5"></circle><circle cx="156.619" cy="259.999" r="7.5"></circle><circle cx="188.529" cy="280.609" r="7.5"></circle></g></g></svg>