<!-- icon666.com - MILLIONS vector ICONS FREE --><svg viewBox="1 -120 511.999 511" xmlns="http://www.w3.org/2000/svg"><path d="m137.457031 127.246094-64.980469-20.757813-53.566406 20.757813v135.828125h118.546875l22.015625-82.4375zm0 0" fill="#fb7073" style="fill: rgb(91, 182, 141);"></path><path d="m149.828125 157.246094-12.371094-30-64.980469-20.757813-53.566406 20.757813v30zm0 0" fill="#e16567" style="fill: rgb(81, 162, 125);"></path><path d="m137.457031 85.734375h-118.546875c-6.300781 0-11.410156 5.109375-11.410156 11.410156v18.6875c0 6.304688 5.109375 11.414063 11.410156 11.414063h118.546875l14.753907-20.757813zm0 0" fill="#efedee"></path><path d="m374.542969 154.476562 64.976562-20.753906 53.566407 20.753906v108.597657h-118.542969l-22.019531-55.207031zm0 0" fill="#5bb68d" style="fill: rgb(251, 112, 115);"></path><path d="m374.542969 154.476562-12.371094 30h130.914063v-30l-53.566407-20.753906zm0 0" fill="#51a27d" style="fill: rgb(225, 101, 103);"></path><path d="m374.542969 112.964844h118.542969c6.304687 0 11.414062 5.109375 11.414062 11.414062v18.6875c0 6.300782-5.109375 11.410156-11.414062 11.410156h-118.542969l-14.757813-20.753906zm0 0" fill="#efedee"></path><path d="m256 28.757812-118.542969 20.753907v213.5625h237.085938v-213.5625zm0 0" fill="#87cde9"></path><path d="m137.457031 49.511719v30h237.085938v-30l-118.542969-20.753907zm0 0" fill="#7ab7d1"></path><path d="m374.542969 8h-237.085938c-6.304687 0-11.414062 5.113281-11.414062 11.414062v18.6875c0 6.304688 5.109375 11.410157 11.414062 11.410157h237.085938c6.304687 0 11.414062-5.105469 11.414062-11.410157v-18.6875c0-6.304687-5.109375-11.414062-11.414062-11.414062zm0 0" fill="#efedee"></path><path d="m18.910156 270.574219h474.175782c4.144531 0 7.5-3.359375 7.5-7.5v-102.65625c6.707031-2.910157 11.414062-9.589844 11.414062-17.351563v-18.6875c0-10.429687-8.484375-18.914062-18.914062-18.914062h-111.042969v-50.011719c6.707031-2.910156 11.414062-9.589844 11.414062-17.351563v-18.6875c0-10.429687-8.484375-18.914062-18.914062-18.914062h-166.167969c-4.144531 0-7.5 3.359375-7.5 7.5s3.355469 7.5 7.5 7.5h166.167969c2.15625 0 3.914062 1.753906 3.914062 3.914062v18.6875c0 2.15625-1.757812 3.910157-3.914062 3.910157h-237.085938c-2.15625 0-3.914062-1.753907-3.914062-3.910157v-18.6875c0-2.160156 1.753906-3.914062 3.914062-3.914062h41.8125c4.140625 0 7.5-3.359375 7.5-7.5s-3.359375-7.5-7.5-7.5h-41.8125c-10.429687 0-18.914062 8.484375-18.914062 18.914062v18.6875c0 7.761719 4.707031 14.441407 11.410156 17.351563v22.777344h-111.042969c-10.425781.003906-18.910156 8.484375-18.910156 18.914062v18.6875c0 7.765625 4.707031 14.445313 11.410156 17.351563v129.890625c0 4.140625 3.359375 7.5 7.5 7.5zm7.5-135.828125h103.546875v120.828125h-103.546875zm466.679688-14.28125c2.15625 0 3.910156 1.753906 3.910156 3.914062v18.6875c0 2.15625-1.753906 3.910156-3.910156 3.910156h-29.859375c-4.140625 0-7.5 3.359376-7.5 7.5 0 4.144532 3.359375 7.5 7.5 7.5h22.359375v93.597657h-103.546875v-93.597657h52.355469c4.144531 0 7.5-3.355468 7.5-7.5 0-4.140624-3.355469-7.5-7.5-7.5h-52.355469v-26.511718zm-126.046875-63.453125v198.5625h-222.085938v-198.5625zm-352.042969 40.132812c0-2.15625 1.753906-3.910156 3.910156-3.910156h111.046875v26.511719h-111.046875c-2.15625 0-3.910156-1.757813-3.910156-3.914063zm0 0" fill="#000000"></path><path d="m188.8125 113.011719c4.140625 0 7.5-3.359375 7.5-7.5v-12.160157c0-4.140624-3.359375-7.5-7.5-7.5s-7.5 3.359376-7.5 7.5v12.160157c0 4.144531 3.359375 7.5 7.5 7.5zm0 0" fill="#000000"></path><path d="m323.1875 113.011719c4.140625 0 7.5-3.359375 7.5-7.5v-12.160157c0-4.140624-3.359375-7.5-7.5-7.5s-7.5 3.359376-7.5 7.5v12.160157c0 4.144531 3.359375 7.5 7.5 7.5zm0 0" fill="#000000"></path><path d="m256 119.503906c8.628906 0 16.730469-3.609375 22.230469-9.902344 2.726562-3.117187 2.40625-7.855468-.710938-10.582031-3.117187-2.726562-7.855469-2.410156-10.582031.710938-2.652344 3.03125-6.636719 4.773437-10.9375 4.773437s-8.285156-1.742187-10.9375-4.773437c-2.726562-3.121094-7.460938-3.4375-10.582031-.710938-3.117188 2.726563-3.4375 7.464844-.710938 10.582031 5.5 6.292969 13.601563 9.902344 22.230469 9.902344zm0 0" fill="#000000"></path></svg>