<!-- icon666.com - MILLIONS vector ICONS FREE --><svg id="Capa_1" enable-background="new 0 0 512 512" viewBox="0 0 512 512" xmlns="http://www.w3.org/2000/svg"><g><g><path d="m86.78 82.338c-42.41 0-76.78 34.37-76.78 76.78v81.56c0 42.4 34.37 76.78 76.78 76.78h239.61v-41.41l77.32 41.41h21.51c42.41 0 76.78-34.38 76.78-76.78v-81.56c0-42.41-34.37-76.78-76.78-76.78z" fill="#ffe4b2"></path></g><g><path d="m421.818 274.05h-331.636c-20.312 0-36.778-16.466-36.778-36.778v-74.754c0-20.312 16.466-36.778 36.778-36.778h331.636c20.312 0 36.778 16.466 36.778 36.778v74.754c0 20.312-16.466 36.778-36.778 36.778z" fill="#ffce62"></path></g><g><path d="m326.393 276.05v138.698c.024 8.29 10.721 11.601 15.424 4.774l23.185-33.654 23.224 38.598c3.092 5.138 9.763 6.797 14.901 3.705l21.139-12.72c5.138-3.092 6.797-9.763 3.705-14.901l-23.225-38.598 40.593-4.722c8.234-.958 10.319-11.96 3.006-15.864z" fill="#fff"></path></g><g><path d="m425.22 72.338h-130.354c-5.523 0-10 4.477-10 10s4.477 10 10 10h130.354c36.823 0 66.78 29.958 66.78 66.78v81.56c0 36.822-29.958 66.78-66.78 66.78h-19l-43.708-23.409h59.306c25.793 0 46.778-20.984 46.778-46.777v-74.754c0-25.793-20.984-46.778-46.778-46.778h-331.636c-25.793 0-46.778 20.984-46.778 46.778v74.754c0 25.793 20.984 46.777 46.778 46.777h226.208v23.409h-229.61c-36.823 0-66.78-29.958-66.78-66.78v-81.56c0-36.823 29.958-66.78 66.78-66.78h120.157c5.523 0 10-4.477 10-10s-4.477-10-10-10h-120.157c-47.85 0-86.78 38.93-86.78 86.781v81.56c0 47.851 38.93 86.78 86.78 86.78h229.613v87.318c.023 8.116 5.248 15.181 13.001 17.581 7.751 2.399 16.054-.479 20.657-7.162l14.382-20.876 15.224 25.301c5.853 9.728 18.884 12.982 28.625 7.119l21.14-12.72c9.854-5.93 13.047-18.771 7.117-28.625l-15.225-25.302 25.181-2.929c8.061-.938 14.492-6.925 16.002-14.899 1.511-7.973-2.285-15.898-9.432-19.713l-12.165-6.515c40.39-7.403 71.097-42.86 71.097-85.356v-81.56c.003-47.853-38.927-86.783-86.777-86.783zm-335.038 191.712c-14.765 0-26.778-12.012-26.778-26.777v-74.754c0-14.766 12.013-26.778 26.778-26.778h331.636c14.765 0 26.778 12.012 26.778 26.778v74.754c0 14.765-12.013 26.777-26.778 26.777zm313.41 87.969c-7.071.823-11.101 8.96-7.413 15.089l23.225 38.598c.244.405.112.934-.292 1.177l-21.14 12.72c-.473.227-.865.13-1.177-.293l-23.225-38.598c-3.687-6.128-12.747-6.404-16.803-.518l-20.374 29.574v-117.018l102.908 55.115z"></path><path d="m262.416 164.632c-.035-.092-.071-.183-.108-.274-1.778-4.322-5.944-7.112-10.616-7.112-.004 0-.009 0-.013 0-4.677.005-8.843 2.806-10.613 7.135-.031.075-.061.15-.089.226l-24.52 64.379c-1.966 5.161.625 10.938 5.786 12.904 5.162 1.966 10.938-.625 12.904-5.786l3.654-9.593h25.591l3.609 9.564c1.924 5.098 7.783 7.75 12.887 5.825 5.167-1.95 7.775-7.72 5.825-12.887zm-15.998 41.879 5.237-13.75 5.189 13.75z"></path><path d="m130.507 191.028c-7.701-2.841-14.892-5.927-17.424-7.032-.803-.752-.873-1.705-.771-2.416.244-1.699 1.667-3.06 3.905-3.733 7.7-2.32 15.025 2.874 16.132 3.707 1.76 1.519 4.048 2.443 6.555 2.443 5.549 0 10.048-4.499 10.048-10.048 0-3.615-1.916-6.775-4.781-8.545-6.418-4.86-19.615-10.956-33.722-6.708-9.707 2.924-16.579 10.604-17.933 20.042-.655 4.56.048 9.275 2.094 13.408 1.937 3.914 5.306 7.881 9.366 9.693.38.17 9.426 4.196 19.61 7.953 3.905 1.44 7.897 3.994 7.388 6.843-.425 2.383-3.77 5.91-9.598 5.91-5.98 0-11.717-2.39-15.345-6.394-3.708-4.093-10.033-4.404-14.125-.695-4.093 3.708-4.404 10.033-.695 14.125 7.466 8.239 18.461 12.964 30.166 12.964 14.653 0 26.97-9.418 29.287-22.395 1.755-9.837-2.618-22.653-20.157-29.122z"></path><path d="m205.873 157.246h-36.062c-5.523 0-10 4.477-10 10s4.477 10 10 10h7.958v55.299c0 5.523 4.477 10 10 10s10-4.477 10-10v-55.299h8.104c5.523 0 10-4.477 10-10s-4.477-10-10-10z"></path><path d="m413.379 157.246h-36.062c-5.523 0-10 4.477-10 10s4.477 10 10 10h7.958v55.299c0 5.523 4.477 10 10 10s10-4.477 10-10v-55.299h8.104c5.523 0 10-4.477 10-10s-4.477-10-10-10z"></path><path d="m354.035 184.216c0-14.872-12.53-26.971-27.931-26.971h-17.352c-.004 0-.007 0-.011 0s-.007 0-.01 0c-5.523 0-10 4.477-10 10v65.299c0 5.523 4.477 10 10 10s10-4.477 10-10v-13.614l17.797 20.221c3.599 4.088 10.022 4.5 14.114.9 4.146-3.649 4.548-9.968.9-14.114l-14.782-16.795c10.129-4.052 17.275-13.697 17.275-24.926zm-27.931 6.971c-1.748 0-4.529.01-7.322.022-.013-2.693.007-11.132 0-13.964h7.322c4.299 0 7.931 3.192 7.931 6.971s-3.632 6.971-7.931 6.971z"></path><path d="m242.2 86.162c2.096 5.032 8.005 7.494 13.05 5.41 5.029-2.077 7.508-8.032 5.41-13.06-2.099-5.03-8.004-7.494-13.05-5.41-5.031 2.078-7.505 8.033-5.41 13.06z"></path></g></g></svg>