<!-- icon666.com - MILLIONS vector ICONS FREE --><svg id="Capa_1" enable-background="new 0 0 512 512" viewBox="0 0 512 512" xmlns="http://www.w3.org/2000/svg"><g><g><path d="m476.583 428.511-220.582 33.942-220.581-33.942v-248.39c0-33.706 27.324-61.03 61.03-61.03h319.104c33.706 0 61.03 27.324 61.03 61.03v248.39z" fill="#f5f8f9"></path><path d="m42.921 436.008-7.501-7.499v-248.388c0-33.7 27.33-61.03 61.03-61.03h19.57c-33.71 0-61.03 27.33-61.03 61.03v248.388z" fill="#d9e7ec"></path><path d="m476.583 428.511h-441.163c-15.418 0-27.917 12.499-27.917 27.917v12.051c0 15.418 12.499 27.917 27.917 27.917h441.163c15.418 0 27.917-12.499 27.917-27.917v-12.051c0-15.419-12.499-27.917-27.917-27.917z" fill="#f5f8f9"></path><path d="m503.697 475.105c-2.97 12.22-13.98 21.29-27.12 21.29h-441.157c-15.42 0-27.92-12.5-27.92-27.92v-12.05c0-13.48 9.56-24.73 22.26-27.34-.53 2.13-.8 4.35-.8 6.63v12.05c0 15.42 12.5 27.92 27.92 27.92h441.157c1.94 0 3.83-.2 5.66-.58z" fill="#d9e7ec"></path><path d="m212.859 462.453h86.285c15.099 0 27.34-12.24 27.34-27.34v-6.603h-140.965v6.603c0 15.099 12.241 27.34 27.34 27.34z" fill="#d9e7ec"></path><path d="m143.902 159.087h-47.45c-11.62 0-21.03 9.42-21.03 21.03v186.279c0 11.45 8.71 20.88 19.87 22.01.74.07 1.49.11 2.25.11h35.83 281.088c12.22 0 22.12-9.91 22.12-22.12v-186.279c0-11.61-9.41-21.03-21.03-21.03h-3.89" fill="#ffe177"></path><g><path d="m172.265 205.043c20.518-6.507 39.385-5.222 57.425-.04 6.765 1.943 25.309-17.806 31.885-14.973 10.961 4.723 9.825 32.637 20.585 38.311 17.212 9.076 34.424 18.152 52.461 23.333 18.04 5.181 64.953-35.563 68.718-53.324 3.765-17.759 7.529-35.517 11.294-53.276 3.765-17.76-32.02-9.805-28.255-27.565-20.516 6.507.169-20.492-17.869-25.672s-35.251-14.256-52.463-23.333c-7.532-3.972-25.363 12.278-32.964 8.633-9.771-4.686-9.357-29.056-19.504-31.971-18.041-5.183-36.909-6.469-57.429.039-18.121 11.782-39.048 53.494-44.695 80.132-5.648 26.641-3.3 56.407 10.811 79.706z" fill="#7a6d79"></path><g fill="#f5f8f9"><path d="m252.281 98.442-11.296 53.286c-18.047-5.185-36.909-6.475-57.425.032l-16.03-25.135 27.324-28.14c20.515-6.508 39.39-5.226 57.427-.043z"></path><path d="m316.049 68.496-11.294 53.276c-17.212-9.077-34.433-18.155-52.472-23.329l11.294-53.276c18.049 5.175 35.26 14.252 52.472 23.329z"></path><path d="m293.457 175.057-11.294 53.276c-17.212-9.076-34.424-18.153-52.472-23.329l11.294-53.276c18.049 5.176 35.261 14.252 52.472 23.329z"></path><path d="m357.216 145.108-11.294 53.276c-18.039-5.174-35.251-14.25-52.463-23.327l11.296-53.286c17.212 9.077 34.424 18.154 52.461 23.337z"></path><path d="m403.347 198.352-11.294 53.276c-20.515 6.507-39.378 5.217-57.425.032l11.294-53.276c18.047 5.185 36.91 6.475 57.425-.032z"></path><path d="m357.216 145.108 11.296-53.286c18.047 5.185 36.909 6.475 57.425-.032l-11.296 53.286c-20.516 6.507-39.388 5.215-57.425.032z"></path></g><path d="m368.512 91.822-11.296 53.286-11.294 53.276-11.294 53.276" fill="none"></path><path d="m316.049 68.496-11.294 53.276-11.296 53.285-11.293 53.276" fill="none"></path><path d="m252.281 98.442 11.293-53.275" fill="none"></path><path d="m240.985 151.728-2.476 11.68-8.818 41.596" fill="none"></path><path d="m199.831 18.749c6.302 1.336 10.327 7.528 8.991 13.829l-26.821 126.509-48.63 229.429h-35.83c-.76 0-1.51-.04-2.25-.11l48.61-229.319 28.461-134.239c1.336-6.302 7.528-10.327 13.829-8.991z" fill="#c68d7a"></path></g></g><path d="m484.079 421.814v-241.697c0-32.815-23.547-60.813-54.973-67.161l4.156-19.606c.554-2.611-.322-5.32-2.301-7.112-1.978-1.792-4.757-2.399-7.304-1.592-38.046 12.065-70.142-4.861-104.123-22.78-31.94-16.843-64.866-34.204-103.56-26.871l.182-.856c2.197-10.332-4.427-20.527-14.771-22.727l-13.635-2.89c-10.329-2.194-20.527 4.427-22.727 14.771l-18.718 88.295h-49.854c-37.788 0-68.53 30.742-68.53 68.529v241.698c-15.94 3.45-27.921 17.656-27.921 34.613v12.05c0 19.531 15.89 35.42 35.42 35.42h80.45c4.143 0 7.5-3.358 7.5-7.5s-3.357-7.5-7.5-7.5h-80.45c-11.26 0-20.42-9.16-20.42-20.42v-12.05c0-11.26 9.16-20.42 20.42-20.42h142.622c.478 18.797 15.906 33.945 34.816 33.945h86.286c18.91 0 34.339-15.147 34.816-33.945h142.62c11.26 0 20.42 9.161 20.42 20.42v12.05c0 11.26-9.16 20.42-20.42 20.42h-325.71c-4.143 0-7.5 3.358-7.5 7.5s3.357 7.5 7.5 7.5h325.71c19.53 0 35.42-15.889 35.42-35.42v-12.05c0-16.957-11.981-31.163-27.921-34.614zm-184.934 33.139h-86.286c-10.639 0-19.349-8.417-19.819-18.942h125.924c-.471 10.524-9.181 18.942-19.819 18.942zm10.884-321.929c12.5 6.502 25.215 12.729 38.426 17.211l-8.161 38.498c-12.846-4.524-25.48-10.921-38.329-17.667zm3.23-15.237 8.065-38.042c12.5 6.502 25.215 12.73 38.425 17.212l-8.161 38.498c-12.846-4.525-25.48-10.922-38.329-17.668zm-13.797-7.248c-12.503-6.503-25.221-12.736-38.435-17.219l8.161-38.495c12.849 4.524 25.487 10.923 38.339 17.671zm-3.23 15.237-8.065 38.043c-12.503-6.503-25.22-12.736-38.435-17.219l8.161-38.496c12.85 4.524 25.487 10.924 38.339 17.672zm-60.965 16.732c-13.301-2.963-27.172-3.742-41.876-.956l7.868-37.114c14.778-3.923 28.684-3.532 42.189-.521zm-45.303 15.21c14.778-3.923 28.683-3.532 42.189-.521l-8.182 38.596c-7.638-1.701-15.462-2.689-23.527-2.689-5.979 0-12.088.54-18.348 1.726zm56.635 3.666c12.849 4.524 25.487 10.924 38.339 17.671l-8.064 38.042c-12.503-6.503-25.221-12.733-38.435-17.215zm52.135 24.919c12.5 6.502 25.215 12.729 38.426 17.211l-8.161 38.498c-12.846-4.524-25.481-10.921-38.329-17.667zm52.893 21.299c7.639 1.702 15.464 2.69 23.529 2.69 5.977 0 12.09-.547 18.351-1.733l-7.871 37.131c-14.779 3.923-28.685 3.528-42.192.515zm45.305-15.203c-14.78 3.923-28.687 3.532-42.193.52l8.182-38.597c7.639 1.702 15.464 2.69 23.53 2.69 5.977 0 12.089-.547 18.35-1.733zm.813-88.666c5.979 0 12.089-.54 18.349-1.726l-7.867 37.113c-14.78 3.924-28.687 3.532-42.193.52l8.182-38.596c7.638 1.701 15.463 2.689 23.529 2.689zm-143.001-53.101-8.182 38.597c-13.301-2.963-27.172-3.742-41.876-.956l7.87-37.125c14.777-3.923 28.682-3.528 42.188-.516zm-75.048-24.224c.478-2.249 2.683-3.69 4.939-3.213l13.634 2.889c2.25.479 3.691 2.692 3.214 4.938l-26.82 126.51-47.37 223.485h-22.77l33.333-157.275c.859-4.052-1.729-8.033-5.782-8.892-4.049-.86-8.032 1.729-8.892 5.782l-33.51 158.112c-4.09-2.601-6.752-7.171-6.752-12.346v-186.28c0-7.46 6.069-13.53 13.53-13.53h38.196l-4.203 19.826c-.858 4.052 1.729 8.033 5.782 8.892 4.052.859 8.034-1.729 8.892-5.782zm-136.775 153.709c0-29.516 24.014-53.529 53.53-53.529h46.675l-5.3 25h-41.376c-15.731 0-28.53 12.799-28.53 28.53v186.28c0 15.265 11.441 27.936 26.666 29.477 1.006.095 2 .143 2.954.143h253.95c4.143 0 7.5-3.358 7.5-7.5s-3.357-7.5-7.5-7.5h-208.864l36.037-170.019c36.25-9.625 67.247 6.706 99.992 23.973 26.772 14.118 54.231 28.602 85.207 28.599 9.769 0 19.894-1.442 30.448-4.79 2.573-.816 4.51-2.953 5.069-5.594l18.318-86.413c6.441 1.034 11.382 6.615 11.382 13.343v186.28c0 8.062-6.559 14.62-14.62 14.62h-27.97c-4.143 0-7.5 3.358-7.5 7.5s3.357 7.5 7.5 7.5h27.97c16.333 0 29.62-13.288 29.62-29.62v-186.28c0-13.933-10.043-25.558-23.268-28.036l5.184-24.456c24.617 4.897 43.082 26.804 43.082 52.49v240.889h-426.156z"></path></g></svg>