<!-- icon666.com - MILLIONS vector ICONS FREE --><svg version="1.1" id="Capa_1" xmlns="http://www.w3.org/2000/svg" xmlns:xlink="http://www.w3.org/1999/xlink" x="0px" y="0px" viewBox="0 0 503.335 503.335" style="enable-background:new 0 0 503.335 503.335;" xml:space="preserve"><path style="fill:#F4D122;" d="M465.92,319.606l-64.591-151.237c-2.757-6.695-9.846-11.422-16.935-11.422H119.335 c-7.483,0-14.178,4.332-16.935,11.422L37.415,321.181c-2.363,5.908-1.969,12.209,1.575,17.723c3.545,5.12,9.452,8.271,15.36,8.271 h395.422l0,0c10.24,0,18.511-8.271,18.511-18.511C468.283,325.12,467.495,321.969,465.92,319.606z"></path><path style="fill:#FFE36E;" d="M465.92,319.606l-64.591-151.237c-2.757-6.695-9.846-11.422-16.935-11.422H119.335 c-7.483,0-14.178,4.332-16.935,11.422L37.415,321.181c-2.363,5.908-1.969,12.209,1.575,17.723c3.545,5.12,9.452,8.271,15.36,8.271 h395.422l0,0c10.24,0,18.511-8.271,18.511-18.511C468.283,325.12,467.495,321.969,465.92,319.606z"></path><path style="fill:#F4D122;" d="M465.92,319.606l-64.591-92.16c-2.757-6.695-9.846-11.422-16.935-11.422H119.335 c-7.483,0-14.178,4.332-16.935,11.422l-64.985,93.735c-2.363,5.908-1.969,12.209,1.575,17.723c3.545,5.12,9.452,8.271,15.36,8.271 h395.422l0,0c10.24,0,18.511-8.271,18.511-18.511C468.283,325.12,467.495,321.969,465.92,319.606z"></path><polygon style="fill:#F2AE25;" points="57.108,284.16 446.228,284.16 405.268,187.668 98.068,187.668 "></polygon><g><path style="fill:#33363A;" d="M449.378,352.689H53.563c-8.271,0-15.754-3.938-20.48-11.028c-4.726-6.695-5.514-15.36-1.969-23.237 l64.985-152.812c3.938-9.058,12.603-14.966,22.449-14.966h265.058c9.846,0,18.511,5.908,22.449,14.966l64.591,150.843 c1.969,3.545,2.757,7.483,2.757,11.422C474.191,341.661,463.163,352.689,449.378,352.689z M118.942,162.855 c-5.12,0-9.846,3.151-11.815,7.877L42.142,323.544c-1.575,3.938-1.182,8.271,1.182,11.815c2.363,3.545,6.302,5.908,10.634,5.908 h395.422c7.089,0,12.603-5.514,12.603-12.603c0-1.969-0.394-4.332-1.575-5.908c0,0,0-0.394-0.394-0.394l-64.591-151.237 c-1.969-4.726-6.695-7.877-11.815-7.877H118.942V162.855z"></path><polygon style="fill:#33363A;" points="57.108,273.526 446.228,273.526 405.268,177.034 98.068,177.034 "></polygon></g><g><path style="fill:#FFE36E;" d="M194.954,193.181h-41.748c-1.969,0-3.938,1.575-3.938,3.938v6.302c0,1.969,1.575,3.938,3.938,3.938 h13.391v46.474c0,1.969,1.575,3.938,3.938,3.938h7.483c1.969,0,3.938-1.575,3.938-3.938V207.36h13.391 c1.969,0,3.938-1.575,3.938-3.938v-6.302C198.498,194.757,196.923,193.181,194.954,193.181z"></path><path style="fill:#FFE36E;" d="M238.671,195.938c-0.394-1.575-1.969-2.757-3.545-2.757h-8.665c-1.575,0-3.151,1.181-3.545,2.757 l-19.298,56.32c-0.394,1.181-0.394,2.363,0.394,3.545c0.788,1.181,1.969,1.575,3.151,1.575h7.483c1.575,0,3.151-1.181,3.545-2.757 l5.12-14.966h14.572l5.12,15.36c0.394,1.575,1.969,2.757,3.545,2.757h7.877l0,0c1.969,0,3.938-1.575,3.938-3.938 c0-0.788,0-1.181-0.394-1.969L238.671,195.938z M227.643,226.265l3.151-9.452l3.151,9.452H227.643z"></path><path style="fill:#FFE36E;" d="M304.837,224.689l15.754-25.6c0.788-1.181,0.788-2.757,0-3.938 c-0.788-1.181-1.969-1.969-3.151-1.969h-8.271c-1.182,0-2.757,0.788-3.151,1.969l-7.877,13.391 c-0.788,1.181-1.575,2.363-1.969,3.545c-0.788-1.181-1.182-2.363-1.969-3.545l-7.483-13.391c-0.788-1.181-1.969-1.969-3.151-1.969 h-8.271c-1.182,0-2.757,0.788-3.151,1.969c-0.788,1.181-0.788,2.757,0,3.938l15.36,25.994l-16.148,26.781 c-0.788,1.181-0.788,2.757,0,3.938c0.788,1.181,1.969,1.969,3.151,1.969h8.271c1.575,0,2.757-0.788,3.151-1.969l6.695-12.209 c1.182-1.969,2.363-3.938,3.151-5.514c0.788,1.575,1.969,3.151,3.151,5.12l7.089,12.603c0.788,1.181,1.969,1.969,3.151,1.969h8.271 l0,0c1.969,0,3.938-1.575,3.938-3.938c0-0.788-0.394-1.969-0.788-2.363L304.837,224.689z"></path><path style="fill:#FFE36E;" d="M350.129,193.181h-7.483c-1.969,0-3.938,1.575-3.938,3.938v56.32c0,1.969,1.575,3.938,3.938,3.938 h7.483c1.969,0,3.938-1.575,3.938-3.938v-56.32C354.068,194.757,352.492,193.181,350.129,193.181z"></path></g><g><path style="fill:#F4D122;" d="M194.954,197.12h-41.748c-1.969,0-3.938,1.575-3.938,3.938v2.363c0,1.969,1.575,3.938,3.938,3.938 h13.391v3.938v42.535c0,1.969,1.575,3.938,3.938,3.938h7.483c1.969,0,3.938-1.575,3.938-3.938v-42.535v-3.938h13.391 c1.969,0,3.938-1.575,3.938-3.938v-2.757C198.498,198.695,196.923,197.12,194.954,197.12z"></path><path style="fill:#F4D122;" d="M235.126,197.12h-8.665c-1.575,0-3.151,1.181-3.545,2.757l-18.905,55.532c0,0,0,0.394,0.394,0.394 c0.788,1.181,1.969,1.575,3.151,1.575h7.483c1.575,0,3.151-1.181,3.545-2.757l5.12-14.966h14.572l5.12,15.36 c0.394,1.575,1.969,2.757,3.545,2.757h7.877l0,0c1.575,0,2.757-0.788,3.151-1.969l-18.905-55.926 C238.277,197.908,236.702,197.12,235.126,197.12z M233.945,229.809h-6.302l1.182-3.938h-1.182l3.151-9.452l3.151,9.452h-1.182 L233.945,229.809z"></path><path style="fill:#F4D122;" d="M274.117,257.378h8.271c1.575,0,2.757-0.788,3.151-1.969l6.695-12.209 c1.182-1.969,2.363-3.938,3.151-5.514c0.788,1.575,1.969,3.151,3.151,5.12l7.089,12.603c0.788,1.182,1.969,1.969,3.151,1.969h8.271 l0,0c1.575,0,2.757-0.788,3.151-1.969c0-0.394-0.394-0.394-0.394-0.788l-16.148-26.388l1.182-1.969l-1.182-1.969l15.754-25.6l0,0 c-0.788-1.181-1.969-1.969-3.151-1.969h-8.271c-1.182,0-2.757,0.788-3.151,1.969l-7.877,13.391 c-0.788,1.181-1.575,2.363-1.969,3.545c-0.788-1.181-1.182-2.363-1.969-3.545l-7.483-13.391c-0.788-1.181-1.969-1.969-3.151-1.969 h-8.271c-1.182,0-2.757,0.788-3.151,1.969l0,0l15.36,25.994l-1.182,1.969l1.182,1.969l-16.148,26.781l0,0 C271.36,256.591,272.935,257.378,274.117,257.378z"></path><path style="fill:#F4D122;" d="M350.129,197.12h-7.483c-1.969,0-3.938,1.575-3.938,3.938v52.775c0,1.969,1.575,3.938,3.938,3.938 h7.483c1.969,0,3.938-1.575,3.938-3.938v-53.169C354.068,198.695,352.492,197.12,350.129,197.12z"></path></g><g><path style="fill:#33363A;" d="M497.428,352.689H5.908c-3.151,0-5.908-2.757-5.908-5.908s2.757-5.908,5.908-5.908h491.52 c3.151,0,5.908,2.757,5.908,5.908S500.578,352.689,497.428,352.689z"></path><rect x="54.351" y="290.855" style="fill:#33363A;" width="17.329" height="17.329"></rect><rect x="71.286" y="307.791" style="fill:#33363A;" width="17.329" height="17.329"></rect><rect x="88.615" y="290.855" style="fill:#33363A;" width="17.329" height="17.329"></rect><rect x="105.551" y="307.791" style="fill:#33363A;" width="17.329" height="17.329"></rect><rect x="122.88" y="290.855" style="fill:#33363A;" width="17.329" height="17.329"></rect><rect x="140.209" y="307.791" style="fill:#33363A;" width="17.329" height="17.329"></rect><rect x="157.145" y="290.855" style="fill:#33363A;" width="17.329" height="17.329"></rect><rect x="174.474" y="307.791" style="fill:#33363A;" width="17.329" height="17.329"></rect><rect x="191.409" y="290.855" style="fill:#33363A;" width="17.329" height="17.329"></rect><rect x="208.738" y="307.791" style="fill:#33363A;" width="17.329" height="17.329"></rect><rect x="226.068" y="290.855" style="fill:#33363A;" width="17.329" height="17.329"></rect><rect x="243.003" y="307.791" style="fill:#33363A;" width="17.329" height="17.329"></rect><rect x="260.332" y="290.855" style="fill:#33363A;" width="17.329" height="17.329"></rect><rect x="277.268" y="307.791" style="fill:#33363A;" width="17.329" height="17.329"></rect><rect x="294.597" y="290.855" style="fill:#33363A;" width="17.329" height="17.329"></rect><rect x="311.926" y="307.791" style="fill:#33363A;" width="17.329" height="17.329"></rect><rect x="328.862" y="290.855" style="fill:#33363A;" width="17.329" height="17.329"></rect><rect x="346.191" y="307.791" style="fill:#33363A;" width="17.329" height="17.329"></rect><rect x="363.126" y="290.855" style="fill:#33363A;" width="17.329" height="17.329"></rect><rect x="380.455" y="307.791" style="fill:#33363A;" width="17.329" height="17.329"></rect><rect x="397.785" y="290.855" style="fill:#33363A;" width="17.329" height="17.329"></rect><rect x="414.72" y="307.791" style="fill:#33363A;" width="17.329" height="17.329"></rect><rect x="432.049" y="290.855" style="fill:#33363A;" width="17.329" height="17.329"></rect></g></svg>