<!-- icon666.com - MILLIONS vector ICONS FREE --><svg id="Layer_2" enable-background="new 0 0 60 60" viewBox="0 0 60 60" xmlns="http://www.w3.org/2000/svg"><g><g><g><g><g><path d="m6 36h48v4h-48z" fill="#544f55"></path></g></g></g><g><g><g><path d="m54 41h-48c-.55 0-1-.45-1-1v-4c0-.55.45-1 1-1h48c.55 0 1 .45 1 1v4c0 .55-.45 1-1 1zm-47-2h46v-2h-46z"></path></g></g></g></g><g><g><g><g><path d="m44.45 20h-28.9c-1.58 0-2.97 1.04-3.42 2.56l-3.93 13.44h43.6l-3.94-13.44c-.44-1.52-1.83-2.56-3.41-2.56z" fill="#f9d403"></path></g></g></g><g><g><g><path d="m51.8 37h-43.6c-.32 0-.61-.15-.8-.4s-.25-.58-.16-.88l3.94-13.44c.57-1.93 2.37-3.28 4.38-3.28h28.89c2.01 0 3.81 1.35 4.38 3.28l3.94 13.44c.09.3.03.63-.16.88-.2.25-.49.4-.81.4zm-42.27-2h40.93l-3.56-12.16c-.31-1.08-1.32-1.84-2.45-1.84h-28.9c-1.13 0-2.14.76-2.46 1.84z"></path></g></g></g></g><g><g><g><g><g><g><path d="m21.17 25.58h-5.25c-.55 0-1-.45-1-1s.45-1 1-1h5.25c.55 0 1 .45 1 1s-.45 1-1 1z"></path></g></g></g></g><g><g><g><g><path d="m18.55 32.42c-.55 0-1-.45-1-1v-6.85c0-.55.45-1 1-1s1 .45 1 1v6.85c0 .56-.45 1-1 1z"></path></g></g></g></g></g><g><g><g><g><g><path d="m30.59 32.42c-.41 0-.8-.26-.94-.67l-1.44-4.13-1.44 4.13c-.18.52-.75.8-1.27.62s-.8-.75-.62-1.27l2.38-6.85c.14-.4.52-.67.94-.67s.8.27.94.67l2.38 6.85c.18.52-.09 1.09-.62 1.27-.09.04-.2.05-.31.05z"></path></g></g></g></g><g><g><g><g><path d="m30.19 31.26h-3.95c-.55 0-1-.45-1-1s.45-1 1-1h3.95c.55 0 1 .45 1 1s-.45 1-1 1z"></path></g></g></g></g></g><g><g><g><g><g><path d="m35.25 32.42c-.18 0-.36-.05-.52-.15-.47-.29-.62-.9-.33-1.37l4.16-6.85c.29-.47.9-.62 1.37-.33s.62.9.33 1.37l-4.16 6.85c-.18.31-.51.48-.85.48z"></path></g></g></g></g><g><g><g><g><path d="m39.42 32.42c-.34 0-.67-.17-.86-.48l-4.16-6.84c-.29-.47-.14-1.09.33-1.37.47-.29 1.09-.14 1.37.33l4.16 6.85c.29.47.14 1.09-.33 1.37-.16.1-.34.14-.51.14z"></path></g></g></g></g></g><g><g><g><g><path d="m44.08 32.42c-.55 0-1-.45-1-1v-6.85c0-.55.45-1 1-1s1 .45 1 1v6.85c0 .56-.45 1-1 1z"></path></g></g></g></g></g></g></svg>