<svg width="166" height="66" viewBox="0 0 166 66" fill="none" xmlns="http://www.w3.org/2000/svg">
<g filter="url(#filter0_d_35632_42)">
<rect x="4" y="4" width="150" height="50" rx="25" fill="#F25822"/>
</g>
<path d="M52.9139 31.284H56.3849V33H51.1199V23.9H52.9139V31.284ZM58.6161 30.439C58.8415 31.2537 59.4525 31.661 60.4491 31.661C61.0905 31.661 61.5758 31.4443 61.9051 31.011L63.2571 31.791C62.6158 32.7183 61.6711 33.182 60.4231 33.182C59.3485 33.182 58.4861 32.857 57.8361 32.207C57.1861 31.557 56.8611 30.738 56.8611 29.75C56.8611 28.7707 57.1818 27.956 57.8231 27.306C58.4645 26.6473 59.2878 26.318 60.2931 26.318C61.2465 26.318 62.0308 26.6473 62.6461 27.306C63.2701 27.9647 63.5821 28.7793 63.5821 29.75C63.5821 29.9667 63.5605 30.1963 63.5171 30.439H58.6161ZM58.5901 29.139H61.9051C61.8098 28.697 61.6105 28.3677 61.3071 28.151C61.0125 27.9343 60.6745 27.826 60.2931 27.826C59.8425 27.826 59.4698 27.943 59.1751 28.177C58.8805 28.4023 58.6855 28.723 58.5901 29.139ZM69.6421 26.5H71.3191V33H69.6421V32.233C69.1394 32.8657 68.4331 33.182 67.5231 33.182C66.6564 33.182 65.9111 32.8527 65.2871 32.194C64.6717 31.5267 64.3641 30.712 64.3641 29.75C64.3641 28.788 64.6717 27.9777 65.2871 27.319C65.9111 26.6517 66.6564 26.318 67.5231 26.318C68.4331 26.318 69.1394 26.6343 69.6421 27.267V26.5ZM66.5481 31.076C66.8861 31.414 67.3151 31.583 67.8351 31.583C68.3551 31.583 68.7841 31.414 69.1221 31.076C69.4687 30.7293 69.6421 30.2873 69.6421 29.75C69.6421 29.2127 69.4687 28.775 69.1221 28.437C68.7841 28.0903 68.3551 27.917 67.8351 27.917C67.3151 27.917 66.8861 28.0903 66.5481 28.437C66.2101 28.775 66.0411 29.2127 66.0411 29.75C66.0411 30.2873 66.2101 30.7293 66.5481 31.076ZM74.5168 27.618C74.6728 27.202 74.9284 26.89 75.2838 26.682C75.6478 26.474 76.0508 26.37 76.4928 26.37V28.242C75.9814 28.1813 75.5221 28.2853 75.1148 28.554C74.7161 28.8227 74.5168 29.269 74.5168 29.893V33H72.8398V26.5H74.5168V27.618ZM81.0875 26.318C81.7982 26.318 82.3832 26.5563 82.8425 27.033C83.3105 27.5097 83.5445 28.1683 83.5445 29.009V33H81.8675V29.217C81.8675 28.7837 81.7505 28.4543 81.5165 28.229C81.2825 27.995 80.9705 27.878 80.5805 27.878C80.1472 27.878 79.8005 28.0123 79.5405 28.281C79.2805 28.5497 79.1505 28.9527 79.1505 29.49V33H77.4735V26.5H79.1505V27.228C79.5579 26.6213 80.2035 26.318 81.0875 26.318ZM97.2095 23.9V33H95.4285V27.098L92.8675 31.323H92.6595L90.0985 27.111V33H88.3045V23.9H90.1505L92.7635 28.203L95.3635 23.9H97.2095ZM104.365 32.194C103.698 32.8527 102.883 33.182 101.921 33.182C100.959 33.182 100.144 32.8527 99.4771 32.194C98.8184 31.5267 98.4891 30.712 98.4891 29.75C98.4891 28.788 98.8184 27.9777 99.4771 27.319C100.144 26.6517 100.959 26.318 101.921 26.318C102.883 26.318 103.698 26.6517 104.365 27.319C105.032 27.9777 105.366 28.788 105.366 29.75C105.366 30.712 105.032 31.5267 104.365 32.194ZM100.66 31.037C100.998 31.375 101.418 31.544 101.921 31.544C102.424 31.544 102.844 31.375 103.182 31.037C103.52 30.699 103.689 30.27 103.689 29.75C103.689 29.23 103.52 28.801 103.182 28.463C102.844 28.125 102.424 27.956 101.921 27.956C101.418 27.956 100.998 28.125 100.66 28.463C100.331 28.801 100.166 29.23 100.166 29.75C100.166 30.27 100.331 30.699 100.66 31.037ZM108.223 27.618C108.379 27.202 108.634 26.89 108.99 26.682C109.354 26.474 109.757 26.37 110.199 26.37V28.242C109.687 28.1813 109.228 28.2853 108.821 28.554C108.422 28.8227 108.223 29.269 108.223 29.893V33H106.546V26.5H108.223V27.618ZM112.355 30.439C112.581 31.2537 113.192 31.661 114.188 31.661C114.83 31.661 115.315 31.4443 115.644 31.011L116.996 31.791C116.355 32.7183 115.41 33.182 114.162 33.182C113.088 33.182 112.225 32.857 111.575 32.207C110.925 31.557 110.6 30.738 110.6 29.75C110.6 28.7707 110.921 27.956 111.562 27.306C112.204 26.6473 113.027 26.318 114.032 26.318C114.986 26.318 115.77 26.6473 116.385 27.306C117.009 27.9647 117.321 28.7793 117.321 29.75C117.321 29.9667 117.3 30.1963 117.256 30.439H112.355ZM112.329 29.139H115.644C115.549 28.697 115.35 28.3677 115.046 28.151C114.752 27.9343 114.414 27.826 114.032 27.826C113.582 27.826 113.209 27.943 112.914 28.177C112.62 28.4023 112.425 28.723 112.329 29.139Z" fill="white"/>
<path d="M124 33L128 29L124 25" stroke="white" stroke-width="1.5" stroke-linecap="round" stroke-linejoin="round"/>
<defs>
<filter id="filter0_d_35632_42" x="0" y="0" width="166" height="66" filterUnits="userSpaceOnUse" color-interpolation-filters="sRGB">
<feFlood flood-opacity="0" result="BackgroundImageFix"/>
<feColorMatrix in="SourceAlpha" type="matrix" values="0 0 0 0 0 0 0 0 0 0 0 0 0 0 0 0 0 0 127 0" result="hardAlpha"/>
<feOffset dx="4" dy="4"/>
<feGaussianBlur stdDeviation="4"/>
<feColorMatrix type="matrix" values="0 0 0 0 0.94902 0 0 0 0 0.345098 0 0 0 0 0.133333 0 0 0 0.2 0"/>
<feBlend mode="normal" in2="BackgroundImageFix" result="effect1_dropShadow_35632_42"/>
<feBlend mode="normal" in="SourceGraphic" in2="effect1_dropShadow_35632_42" result="shape"/>
</filter>
</defs>
</svg>
