<svg width="156" height="66" viewBox="0 0 156 66" fill="none" xmlns="http://www.w3.org/2000/svg">
<g filter="url(#filter0_d_103_19)">
<rect x="4" y="4" width="140" height="50" rx="25" fill="#F25822"/>
</g>
<path d="M43.56 33.21C42.52 33.21 41.645 32.98 40.935 32.52C40.225 32.05 39.725 31.415 39.435 30.615L41.205 29.58C41.615 30.65 42.42 31.185 43.62 31.185C44.2 31.185 44.625 31.08 44.895 30.87C45.165 30.66 45.3 30.395 45.3 30.075C45.3 29.705 45.135 29.42 44.805 29.22C44.475 29.01 43.885 28.785 43.035 28.545C42.565 28.405 42.165 28.265 41.835 28.125C41.515 27.985 41.19 27.8 40.86 27.57C40.54 27.33 40.295 27.03 40.125 26.67C39.955 26.31 39.87 25.89 39.87 25.41C39.87 24.46 40.205 23.705 40.875 23.145C41.555 22.575 42.37 22.29 43.32 22.29C44.17 22.29 44.915 22.5 45.555 22.92C46.205 23.33 46.71 23.905 47.07 24.645L45.33 25.65C44.91 24.75 44.24 24.3 43.32 24.3C42.89 24.3 42.55 24.4 42.3 24.6C42.06 24.79 41.94 25.04 41.94 25.35C41.94 25.68 42.075 25.95 42.345 26.16C42.625 26.36 43.155 26.58 43.935 26.82C44.255 26.92 44.495 27 44.655 27.06C44.825 27.11 45.05 27.195 45.33 27.315C45.62 27.425 45.84 27.53 45.99 27.63C46.15 27.73 46.33 27.865 46.53 28.035C46.73 28.205 46.88 28.38 46.98 28.56C47.09 28.74 47.18 28.96 47.25 29.22C47.33 29.47 47.37 29.745 47.37 30.045C47.37 31.015 47.015 31.785 46.305 32.355C45.605 32.925 44.69 33.21 43.56 33.21ZM52.7004 27.36H51.0054V30.48C51.0054 30.74 51.0704 30.93 51.2004 31.05C51.3304 31.17 51.5204 31.24 51.7704 31.26C52.0204 31.27 52.3304 31.265 52.7004 31.245V33C51.3704 33.15 50.4304 33.025 49.8804 32.625C49.3404 32.225 49.0704 31.51 49.0704 30.48V27.36H47.7654V25.5H49.0704V23.985L51.0054 23.4V25.5H52.7004V27.36ZM59.5303 25.5H61.4653V33H59.5303V32.115C58.9503 32.845 58.1353 33.21 57.0853 33.21C56.0853 33.21 55.2253 32.83 54.5053 32.07C53.7953 31.3 53.4403 30.36 53.4403 29.25C53.4403 28.14 53.7953 27.205 54.5053 26.445C55.2253 25.675 56.0853 25.29 57.0853 25.29C58.1353 25.29 58.9503 25.655 59.5303 26.385V25.5ZM55.9603 30.78C56.3503 31.17 56.8453 31.365 57.4453 31.365C58.0453 31.365 58.5403 31.17 58.9303 30.78C59.3303 30.38 59.5303 29.87 59.5303 29.25C59.5303 28.63 59.3303 28.125 58.9303 27.735C58.5403 27.335 58.0453 27.135 57.4453 27.135C56.8453 27.135 56.3503 27.335 55.9603 27.735C55.5703 28.125 55.3753 28.63 55.3753 29.25C55.3753 29.87 55.5703 30.38 55.9603 30.78ZM65.155 26.79C65.335 26.31 65.63 25.95 66.04 25.71C66.46 25.47 66.925 25.35 67.435 25.35V27.51C66.845 27.44 66.315 27.56 65.845 27.87C65.385 28.18 65.155 28.695 65.155 29.415V33H63.22V25.5H65.155V26.79ZM73.0617 27.36H71.3667V30.48C71.3667 30.74 71.4317 30.93 71.5617 31.05C71.6917 31.17 71.8817 31.24 72.1317 31.26C72.3817 31.27 72.6917 31.265 73.0617 31.245V33C71.7317 33.15 70.7917 33.025 70.2417 32.625C69.7017 32.225 69.4317 31.51 69.4317 30.48V27.36H68.1267V25.5H69.4317V23.985L71.3667 23.4V25.5H73.0617V27.36ZM84.4582 22.5H86.5282V33H84.9532L80.4532 26.58V33H78.3832V22.5H79.9582L84.4582 28.905V22.5ZM94.776 32.07C94.006 32.83 93.066 33.21 91.956 33.21C90.846 33.21 89.906 32.83 89.136 32.07C88.376 31.3 87.996 30.36 87.996 29.25C87.996 28.14 88.376 27.205 89.136 26.445C89.906 25.675 90.846 25.29 91.956 25.29C93.066 25.29 94.006 25.675 94.776 26.445C95.546 27.205 95.931 28.14 95.931 29.25C95.931 30.36 95.546 31.3 94.776 32.07ZM90.501 30.735C90.891 31.125 91.376 31.32 91.956 31.32C92.536 31.32 93.021 31.125 93.411 30.735C93.801 30.345 93.996 29.85 93.996 29.25C93.996 28.65 93.801 28.155 93.411 27.765C93.021 27.375 92.536 27.18 91.956 27.18C91.376 27.18 90.891 27.375 90.501 27.765C90.121 28.155 89.931 28.65 89.931 29.25C89.931 29.85 90.121 30.345 90.501 30.735ZM105.444 25.5H107.499L105.114 33H103.269L101.889 28.455L100.509 33H98.6643L96.2793 25.5H98.3343L99.6093 30.105L100.974 25.5H102.804L104.169 30.12L105.444 25.5Z" fill="white"/>
<defs>
<filter id="filter0_d_103_19" x="0" y="0" width="156" height="66" filterUnits="userSpaceOnUse" color-interpolation-filters="sRGB">
<feFlood flood-opacity="0" result="BackgroundImageFix"/>
<feColorMatrix in="SourceAlpha" type="matrix" values="0 0 0 0 0 0 0 0 0 0 0 0 0 0 0 0 0 0 127 0" result="hardAlpha"/>
<feOffset dx="4" dy="4"/>
<feGaussianBlur stdDeviation="4"/>
<feColorMatrix type="matrix" values="0 0 0 0 0.94902 0 0 0 0 0.345098 0 0 0 0 0.133333 0 0 0 0.2 0"/>
<feBlend mode="normal" in2="BackgroundImageFix" result="effect1_dropShadow_103_19"/>
<feBlend mode="normal" in="SourceGraphic" in2="effect1_dropShadow_103_19" result="shape"/>
</filter>
</defs>
</svg>
