<svg width="90" height="19" viewBox="0 0 90 19" fill="none" xmlns="http://www.w3.org/2000/svg">
<path d="M3.165 14L0.225 3.5H2.4L4.41 11.285L6.6 3.5H8.37L10.575 11.285L12.585 3.5H14.76L11.82 14H9.465L7.485 7.07L5.52 14H3.165ZM20.6768 6.5H22.6118V14H20.6768V13.115C20.0968 13.845 19.2818 14.21 18.2318 14.21C17.2318 14.21 16.3718 13.83 15.6518 13.07C14.9418 12.3 14.5868 11.36 14.5868 10.25C14.5868 9.14 14.9418 8.205 15.6518 7.445C16.3718 6.675 17.2318 6.29 18.2318 6.29C19.2818 6.29 20.0968 6.655 20.6768 7.385V6.5ZM17.1068 11.78C17.4968 12.17 17.9918 12.365 18.5918 12.365C19.1918 12.365 19.6868 12.17 20.0768 11.78C20.4768 11.38 20.6768 10.87 20.6768 10.25C20.6768 9.63 20.4768 9.125 20.0768 8.735C19.6868 8.335 19.1918 8.135 18.5918 8.135C17.9918 8.135 17.4968 8.335 17.1068 8.735C16.7168 9.125 16.5218 9.63 16.5218 10.25C16.5218 10.87 16.7168 11.38 17.1068 11.78ZM28.6564 8.36H26.9614V11.48C26.9614 11.74 27.0264 11.93 27.1564 12.05C27.2864 12.17 27.4764 12.24 27.7264 12.26C27.9764 12.27 28.2864 12.265 28.6564 12.245V14C27.3264 14.15 26.3864 14.025 25.8364 13.625C25.2964 13.225 25.0264 12.51 25.0264 11.48V8.36H23.7214V6.5H25.0264V4.985L26.9614 4.4V6.5H28.6564V8.36ZM33.3564 14.21C32.2264 14.21 31.2814 13.83 30.5214 13.07C29.7714 12.31 29.3964 11.37 29.3964 10.25C29.3964 9.13 29.7714 8.19 30.5214 7.43C31.2814 6.67 32.2264 6.29 33.3564 6.29C34.0864 6.29 34.7514 6.465 35.3514 6.815C35.9514 7.165 36.4064 7.635 36.7164 8.225L35.0514 9.2C34.9014 8.89 34.6714 8.645 34.3614 8.465C34.0614 8.285 33.7214 8.195 33.3414 8.195C32.7614 8.195 32.2814 8.39 31.9014 8.78C31.5214 9.16 31.3314 9.65 31.3314 10.25C31.3314 10.84 31.5214 11.33 31.9014 11.72C32.2814 12.1 32.7614 12.29 33.3414 12.29C33.7314 12.29 34.0764 12.205 34.3764 12.035C34.6864 11.855 34.9164 11.61 35.0664 11.3L36.7464 12.26C36.4164 12.85 35.9514 13.325 35.3514 13.685C34.7514 14.035 34.0864 14.21 33.3564 14.21ZM41.9398 6.29C42.7598 6.29 43.4348 6.565 43.9648 7.115C44.5048 7.665 44.7748 8.425 44.7748 9.395V14H42.8398V9.635C42.8398 9.135 42.7048 8.755 42.4348 8.495C42.1648 8.225 41.8048 8.09 41.3548 8.09C40.8548 8.09 40.4548 8.245 40.1548 8.555C39.8548 8.865 39.7048 9.33 39.7048 9.95V14H37.7698V3.5H39.7048V7.34C40.1748 6.64 40.9198 6.29 41.9398 6.29ZM52.862 14L49.337 3.5H51.587L54.152 11.57L56.702 3.5H58.967L55.427 14H52.862ZM60.5559 5.6C60.2359 5.6 59.9559 5.485 59.7159 5.255C59.4859 5.015 59.3709 4.735 59.3709 4.415C59.3709 4.095 59.4859 3.815 59.7159 3.575C59.9559 3.335 60.2359 3.215 60.5559 3.215C60.8859 3.215 61.1659 3.335 61.3959 3.575C61.6359 3.815 61.7559 4.095 61.7559 4.415C61.7559 4.735 61.6359 5.015 61.3959 5.255C61.1659 5.485 60.8859 5.6 60.5559 5.6ZM59.5959 14V6.5H61.5309V14H59.5959ZM68.987 3.5H70.922V14H68.987V13.115C68.417 13.845 67.607 14.21 66.557 14.21C65.547 14.21 64.682 13.83 63.962 13.07C63.252 12.3 62.897 11.36 62.897 10.25C62.897 9.14 63.252 8.205 63.962 7.445C64.682 6.675 65.547 6.29 66.557 6.29C67.607 6.29 68.417 6.655 68.987 7.385V3.5ZM65.417 11.78C65.817 12.17 66.317 12.365 66.917 12.365C67.517 12.365 68.012 12.17 68.402 11.78C68.792 11.38 68.987 10.87 68.987 10.25C68.987 9.63 68.792 9.125 68.402 8.735C68.012 8.335 67.517 8.135 66.917 8.135C66.317 8.135 65.817 8.335 65.417 8.735C65.027 9.125 64.832 9.63 64.832 10.25C64.832 10.87 65.027 11.38 65.417 11.78ZM74.3266 11.045C74.5866 11.985 75.2916 12.455 76.4416 12.455C77.1816 12.455 77.7416 12.205 78.1216 11.705L79.6816 12.605C78.9416 13.675 77.8516 14.21 76.4116 14.21C75.1716 14.21 74.1766 13.835 73.4266 13.085C72.6766 12.335 72.3016 11.39 72.3016 10.25C72.3016 9.12 72.6716 8.18 73.4116 7.43C74.1516 6.67 75.1016 6.29 76.2616 6.29C77.3616 6.29 78.2666 6.67 78.9766 7.43C79.6966 8.19 80.0566 9.13 80.0566 10.25C80.0566 10.5 80.0316 10.765 79.9816 11.045H74.3266ZM74.2966 9.545H78.1216C78.0116 9.035 77.7816 8.655 77.4316 8.405C77.0916 8.155 76.7016 8.03 76.2616 8.03C75.7416 8.03 75.3116 8.165 74.9716 8.435C74.6316 8.695 74.4066 9.065 74.2966 9.545ZM87.7389 13.07C86.9689 13.83 86.0289 14.21 84.9189 14.21C83.8089 14.21 82.8689 13.83 82.0989 13.07C81.3389 12.3 80.9589 11.36 80.9589 10.25C80.9589 9.14 81.3389 8.205 82.0989 7.445C82.8689 6.675 83.8089 6.29 84.9189 6.29C86.0289 6.29 86.9689 6.675 87.7389 7.445C88.5089 8.205 88.8939 9.14 88.8939 10.25C88.8939 11.36 88.5089 12.3 87.7389 13.07ZM83.4639 11.735C83.8539 12.125 84.3389 12.32 84.9189 12.32C85.4989 12.32 85.9839 12.125 86.3739 11.735C86.7639 11.345 86.9589 10.85 86.9589 10.25C86.9589 9.65 86.7639 9.155 86.3739 8.765C85.9839 8.375 85.4989 8.18 84.9189 8.18C84.3389 8.18 83.8539 8.375 83.4639 8.765C83.0839 9.155 82.8939 9.65 82.8939 10.25C82.8939 10.85 83.0839 11.345 83.4639 11.735Z" fill="#AAAAAA"/>
</svg>
